<svg xmlns="http://www.w3.org/2000/svg" viewBox="0 0 64 64">
  <defs>
    <linearGradient id="flameGrad" x1="50%" y1="100%" x2="50%" y2="0%">
      <stop offset="0%" stop-color="#7c3aed"/>
      <stop offset="50%" stop-color="#c026d3"/>
      <stop offset="100%" stop-color="#e879f9"/>
    </linearGradient>
    <linearGradient id="innerGrad" x1="50%" y1="100%" x2="50%" y2="0%">
      <stop offset="0%" stop-color="#581c87"/>
      <stop offset="100%" stop-color="#d946ef"/>
    </linearGradient>
  </defs>
  <!-- Outer flame -->
  <path d="M32 4 C32 4, 12 24, 12 38 C12 49, 21 58, 32 58 C43 58, 52 49, 52 38 C52 24, 32 4, 32 4Z" fill="url(#flameGrad)"/>
  <!-- Inner flame -->
  <path d="M32 22 C32 22, 22 34, 22 41 C22 47, 26.5 52, 32 52 C37.5 52, 42 47, 42 41 C42 34, 32 22, 32 22Z" fill="url(#innerGrad)" opacity="0.8"/>
  <!-- Core glow -->
  <ellipse cx="32" cy="46" rx="5" ry="6" fill="#fae8ff" opacity="0.5"/>
</svg>
